<svg id="레이어_1" data-name="레이어 1" xmlns="http://www.w3.org/2000/svg" viewBox="0 0 160.34 165.72"><defs><style>.cls-1{fill:#5ca2ff;}.cls-2{fill:none;stroke:#fff;stroke-linecap:round;stroke-linejoin:round;stroke-width:16px;}.cls-3{fill:#ffff1d;}</style></defs><rect class="cls-1" x="0.01" width="160.33" height="165.72"/><g id="그룹_3" data-name="그룹 3"><path id="패스_99" data-name="패스 99" class="cls-2" d="M81.32,78.73S62.48,23.85,84.56,10.68C89.11,8,95.82,7.1,105.08,9.22,156.85,21.08,81.32,78.73,81.32,78.73Z" transform="translate(0.01)"/><path id="패스_100" data-name="패스 100" class="cls-2" d="M95.84,74.2s52.46-44.68,56.34,4.53-69.94,4.54-69.94,4.54" transform="translate(0.01)"/><path id="패스_101" data-name="패스 101" class="cls-2" d="M79.54,94.14s-20.06,66.7,25.26,63.46c22.07-1.57,17.91-26.3,7.57-41.58-10.6-15.66-28-21.88-28-21.88" transform="translate(0.01)"/><path id="패스_102" data-name="패스 102" class="cls-2" d="M67.81,83.11s-66.08.11-54.54,46.61c3.23,13,19,14.7,26.3,11.33,18-8.32,33.21-53.6,33.21-53.6" transform="translate(0.01)"/><path id="패스_103" data-name="패스 103" class="cls-2" d="M65.54,86.53S33.78,82.6,18.92,68.27c-8-7.68-16.79-22.14-5.69-36C44.31-6.6,73.32,82.68,73.32,82.68" transform="translate(0.01)"/><path id="패스_114" data-name="패스 114" class="cls-3" d="M63.91,91.21c-3-4.56-7-19,11.53-19.57s11.8,17.7,11.8,17.7-6.17,11.26-11.8,9.11S66.86,95.77,63.91,91.21Z" transform="translate(0.01)"/></g></svg>