<svg id="레이어_1" data-name="레이어 1" xmlns="http://www.w3.org/2000/svg" viewBox="0 0 161.96 172.26"><defs><style>.cls-1,.cls-2{fill:none;stroke:#fff;stroke-linecap:round;stroke-linejoin:round;}.cls-1{stroke-width:14px;}.cls-2{stroke-width:14px;}.cls-3{fill:#ffff1d;}</style></defs><g id="그룹_5" data-name="그룹 5"><path id="패스_109" data-name="패스 109" class="cls-1" d="M97.44,102.49S65.21,65.43,70.84,45s13-21,13-21S98,13.25,111.25,34.23,97.44,102.49,97.44,102.49Z" transform="translate(-18.58 -14.25)"/><path id="패스_110" data-name="패스 110" class="cls-2" d="M105.24,105s24.43-50.2,45.66-47.75,22.62,15.26,22.62,15.26,1.11,24.22-17.66,26-47.7,5.51-47.7,5.51" transform="translate(-18.58 -14.25)"/><path id="패스_111" data-name="패스 111" class="cls-1" d="M103.07,108.4s9.72,34.28,28.64,43.49,27.63-11.77,27.63-11.77-1.54-23-21-24.05-32.75-7.67-32.75-7.67" transform="translate(-18.58 -14.25)"/><path id="패스_112" data-name="패스 112" class="cls-1" d="M92.55,108.4s-26.61,37.35-22.37,52.18,16,18.93,16,18.93,23-8.18,22.51-22.51S95.9,112.52,95.9,112.52" transform="translate(-18.58 -14.25)"/><path id="패스_113" data-name="패스 113" class="cls-1" d="M85.16,112.52s-29.67,10.72-42.46,4.07-18.41-10.75-16.88-17.9S34,80.79,43.72,81.3,82,92.15,89.21,100" transform="translate(-18.58 -14.25)"/><path id="패스_116" data-name="패스 116" class="cls-3" d="M87.71,108.27s2.42-13.7,15.52-12.69,9.27,16.32,9.27,16.32S106.25,124.8,97.18,122,87.71,108.27,87.71,108.27Z" transform="translate(-18.58 -14.25)"/></g></svg>