<svg id="레이어_1" data-name="레이어 1" xmlns="http://www.w3.org/2000/svg" viewBox="0 0 131.06 136.66"><defs><style>.cls-1,.cls-2,.cls-3,.cls-4{fill:none;stroke-linecap:round;stroke-linejoin:round;stroke-width:3px;}.cls-1{stroke:#00911b;}.cls-2{stroke:#ff9e10;}.cls-3{stroke:#ff7212;}.cls-4{stroke:#ff390b;}</style></defs><g id="그룹_2" data-name="그룹 2"><path id="패스_85" data-name="패스 85" class="cls-1" d="M46.85,45.7s-13.26,78.17-17.67,85"/><path id="패스_86" data-name="패스 86" class="cls-2" d="M33.59,15.07s-5,26.84,10.66,28.49,9-14.24,9-14.24S50.13,16.91,33.59,15.07Z"/><path id="패스_87" data-name="패스 87" class="cls-2" d="M49.4,20.22S58.4,8.78,60.24,6c2.62-4,5,12.4,4.41,15.9S58.14,42.69,53.07,42.14"/><path id="패스_88" data-name="패스 88" class="cls-2" d="M39.66,15.07s5.51-8,6.06-11.82A28.9,28.9,0,0,1,54,10.34"/><path id="패스_89" data-name="패스 89" class="cls-1" d="M39.11,90.21s2.39-23.62-11.7-30.42c0,0-12.07,15.44,8,36.45"/><path id="패스_90" data-name="패스 90" class="cls-1" d="M75.49,45.7s-61.74,73.27-66.4,85"/><path id="패스_91" data-name="패스 91" class="cls-3" d="M82.35,9.16S66.67,30,75,42.15C89,58.65,114.45,25.86,108.33,17c-11.52,4.42-21.81,5.4-31.61,23.28"/><path id="패스_92" data-name="패스 92" class="cls-3" d="M82.9,8.43S91,19,89.37,25.23"/><path id="패스_93" data-name="패스 93" class="cls-3" d="M87.62,11.72s10-7.63,11.72-6.37,2,14.2,2,14.2"/><path id="패스_94" data-name="패스 94" class="cls-1" d="M2,124.36S71.63,61.88,89.61,60.9"/><path id="패스_95" data-name="패스 95" class="cls-1" d="M62,76.17s31.12-9.72,38.36,3.27c0,0-13.61,16.9-38.36-2"/><path id="패스_96" data-name="패스 96" class="cls-4" d="M115.77,32.75s-24,1.79-25.66,27c0,0,23.92-7,25.67-26.67"/><path id="패스_97" data-name="패스 97" class="cls-4" d="M89.42,60.79s10.1,11.53,25.07,7.49,11.79-17.65,11.79-17.65-7-2-7.9-.13"/><path id="패스_98" data-name="패스 98" class="cls-4" d="M112.28,45s8.5-3.19,10.5-2S107.7,64.42,100.39,66.76"/></g></svg>