<svg id="레이어_1" data-name="레이어 1" xmlns="http://www.w3.org/2000/svg" viewBox="0 0 160.33 165.72"><defs><style>.cls-1,.cls-2{fill:none;stroke:#fff;stroke-linecap:round;stroke-linejoin:round;}.cls-1{stroke-width:16px;}.cls-2{stroke-width:16px;}.cls-3{fill:#ffff1d;}</style></defs><g id="그룹_3" data-name="그룹 3"><path id="패스_99" data-name="패스 99" class="cls-1" d="M100.84,99.05S82,44.17,104.08,31c4.55-2.72,11.26-3.58,20.52-1.46C176.37,41.4,100.84,99.05,100.84,99.05Z" transform="translate(-19.52 -20.32)"/><path id="패스_100" data-name="패스 100" class="cls-1" d="M115.36,94.52s52.46-44.68,56.34,4.53-69.94,4.54-69.94,4.54" transform="translate(-19.52 -20.32)"/><path id="패스_101" data-name="패스 101" class="cls-1" d="M99.06,114.46S79,181.16,124.32,177.92c22.07-1.57,17.91-26.3,7.57-41.58-10.6-15.66-28-21.88-28-21.88" transform="translate(-19.52 -20.32)"/><path id="패스_102" data-name="패스 102" class="cls-2" d="M87.33,103.43s-66.08.11-54.54,46.61c3.23,13,19,14.7,26.3,11.33,18-8.32,33.21-53.6,33.21-53.6" transform="translate(-19.52 -20.32)"/><path id="패스_103" data-name="패스 103" class="cls-1" d="M85.06,106.85S53.3,102.92,38.44,88.59c-8-7.68-16.79-22.14-5.69-36C63.83,13.72,92.84,103,92.84,103" transform="translate(-19.52 -20.32)"/><path id="패스_114" data-name="패스 114" class="cls-3" d="M83.43,111.53c-3-4.56-7-19,11.53-19.57s11.8,17.7,11.8,17.7-6.17,11.26-11.8,9.11S86.38,116.09,83.43,111.53Z" transform="translate(-19.52 -20.32)"/></g></svg>