<svg id="레이어_1" data-name="레이어 1" xmlns="http://www.w3.org/2000/svg" viewBox="0 0 172.13 163.99"><defs><style>.cls-1,.cls-2{fill:none;stroke:#fff;stroke-linecap:round;stroke-linejoin:round;}.cls-1{stroke-width:15px;}.cls-2{stroke-width:15px;}.cls-3{fill:#ffff1d;}</style></defs><g id="그룹_4" data-name="그룹 4"><path id="패스_104" data-name="패스 104" class="cls-1" d="M82.52,101.31S34,108.16,24.28,83.61,29.42,46.5,29.42,46.5s17.13-15.42,40,6.85S88.23,104.8,88.23,104.8" transform="translate(-13.49 -17.21)"/><path id="패스_105" data-name="패스 105" class="cls-2" d="M91.62,83.36s-11.84-54.13,12-56.64C130,18.31,139,38.91,139,38.91s6.19,26.41-34.87,50.37" transform="translate(-13.49 -17.21)"/><path id="패스_106" data-name="패스 106" class="cls-1" d="M113.26,97.24s14.28-26.84,38.26-24,26.6,26.27,26.6,26.27.81,25.7-23.74,28-46.82-22.26-46.82-22.26" transform="translate(-13.49 -17.21)"/><path id="패스_107" data-name="패스 107" class="cls-1" d="M112.63,109.07s41.11,23.4,27.41,48.45-25.12,13.55-25.12,13.55-26.3-6.22-14-55.89" transform="translate(-13.49 -17.21)"/><path id="패스_108" data-name="패스 108" class="cls-1" d="M74.43,113.35s-36,5.3-38.82,34,25.12,21.25,25.12,21.25S92.2,144.7,88.14,117.17" transform="translate(-13.49 -17.21)"/><path id="패스_115" data-name="패스 115" class="cls-3" d="M83.89,96.65s7.78-16,23.19-7.13,2.6,24,2.6,24-15.2,16.74-24.89,6.18S83.89,96.65,83.89,96.65Z" transform="translate(-13.49 -17.21)"/></g></svg>