<?xml version="1.0" encoding="utf-8"?>
<!-- Generator: Adobe Illustrator 25.0.0, SVG Export Plug-In . SVG Version: 6.00 Build 0)  -->
<svg version="1.1" id="레이어_1" xmlns="http://www.w3.org/2000/svg" xmlns:xlink="http://www.w3.org/1999/xlink" x="0px"
	 y="0px" viewBox="0 0 246.2 138.7" style="enable-background:new 0 0 246.2 138.7;" xml:space="preserve">
<style type="text/css">
	.st0{fill:none;stroke:#2A285E;stroke-width:10.92;stroke-linecap:round;stroke-miterlimit:10;}
	.st1{fill:none;stroke:#2A285E;stroke-width:10.92;stroke-miterlimit:10;}
	.st2{fill:none;stroke:#2A285E;stroke-width:10.92;stroke-linecap:round;stroke-linejoin:round;}
	.st3{stroke:#2A285E;stroke-width:10.92;stroke-linecap:round;stroke-miterlimit:10;}
	.st4{fill:none;stroke:#2A285E;stroke-width:7.02;stroke-linecap:round;stroke-miterlimit:10;}
	.st5{fill:none;stroke:#2A285E;stroke-width:6.24;stroke-linecap:round;stroke-miterlimit:10;}
</style>
<g id="somLogo">
	<path id="패스_49" class="st0" d="M74.4,16.9c0,0-27.8-28.7-44.6,6.7c-7.6,20.3,31.8,7.2,31.8,7.2s43-4.8,3.6,27.9
		c0,0-18,11.8-27.9-10.4"/>
	<path id="패스_50" class="st1" d="M95.2,23.7c0,0-23.1,10.7-4.8,21.5S114.4,15.7,95.2,23.7z"/>
	<path id="패스_51" class="st2" d="M116.7,47c0,0-0.8-62,19.5-18.6l1.6,18.6c0,0,2-46.4,19.5-30.9c5.2,9.2,0,30.9,0,30.9"/>
	<path id="패스_52" class="st0" d="M213.8,22.6c0,0-12.8-16.5-21.5,4.7c0,7.6,15.5,6.7,15.5,6.7s10.8,1.7,8,7.7s-13.5,11.5-23.5,4
		"/>
	<circle id="타원_1" class="st3" cx="175.8" cy="22" r="4.6"/>
	<path id="패스_53" class="st4" d="M170.2,40c0,0,17.4-2.6,11.5-20.4"/>
	<path id="패스_54" class="st0" d="M97.2,5.5c0,0,16.6,0.5,19.8,15"/>
	<line id="선_1" class="st0" x1="5.5" y1="84.4" x2="34.1" y2="133.3"/>
	<path id="패스_55" class="st0" d="M5.5,83.1c0,0,27.1-17,37.2,2.7s-19.9,28.1-19.9,28.1"/>
	<path id="패스_56" class="st0" d="M60.7,79.5c0,0-7.2,1.1-4.8,8.2c2.4,7.2,9.8,5.1,9.8,5.1s5.3,0,4.5-7.7s-7.4-5.6-7.4-5.6"/>
	<path id="패스_57" class="st0" d="M98.7,72c0,0-21.5-5.1-15.6,25.4c2.3,12-2.9-25.4-2.9-25.4"/>
	<path id="패스_58" class="st0" d="M95.8,93.4c0,0,14.1-5.6,24.2-1.4"/>
	<path id="패스_59" class="st0" d="M112.9,73.5c0,0-14.4,32.4-7.5,37.4s9-1.9,9-1.9"/>
	<path id="패스_60" class="st0" d="M153.9,70.4c-0.5-1.3-3.7-13-12.2-5.6s-14.1,52.8-14.1,52.8"/>
	<path id="패스_61" class="st0" d="M121.5,78.2c0,0,22.8,3.1,31.3,10.7"/>
	<path id="패스_62" class="st0" d="M158.6,98.7c0,0-8,0-7.7,9.3s3.2,10.1,7.7,11.1s9-9.6,9-9.6S171.6,96.8,158.6,98.7z"/>
	<path id="패스_63" class="st0" d="M186.7,66.1c0,0-2.9,42.3-7.7,45.7"/>
	<line id="선_2" class="st0" x1="202.5" y1="93.4" x2="194.3" y2="118.3"/>
	<path id="패스_64" class="st0" d="M229.8,94c0,0-16.1,0.1-16.4,14.1s12.1,15.6,12.1,15.6s12.2,4.5,14.9-14.9S229.8,94,229.8,94z"
		/>
	<path id="패스_65" class="st5" d="M204.3,73.6c0,0-3.9,0.5-3.4,5c0.5,4.5,5.3,4.3,5.3,4.3s5.3,0.8,5.3-4.7S204.3,73.6,204.3,73.6
		z"/>
</g>
</svg>
