<svg id="레이어_1" data-name="레이어 1" xmlns="http://www.w3.org/2000/svg" viewBox="0 0 1573.28 284.94"><defs><style>.cls-1{fill:none;stroke:#fff;}</style></defs><g id="뱅글뱅글"><path id="패스_10" data-name="패스 10" class="cls-1" d="M37.38,230.3S246.61-5,127.52-59.58C65.5,49.58,56.4,237.3,56.4,237.3"/><path id="패스_11" data-name="패스 11" class="cls-1" d="M187.07,237.3S345.85,54.54,277.21-37.25c-70.29,38.86-79.39,286.13-79.39,286.13"/><path id="패스_12" data-name="패스 12" class="cls-1" d="M326.21,241.65S459.35,63,407.25-29.6c-86,42.17-63.68,292.75-63.68,292.75"/><path id="패스_13" data-name="패스 13" class="cls-1" d="M456.46,244.75s177.8-226.6,93.45-296.89C486.23,18.15,463.07,258,463.07,258"/><path id="패스_14" data-name="패스 14" class="cls-1" d="M591.26,237.3s153.81-181.93,84.35-282C606.14,94.24,582.16,270.38,649.14,296"/><path id="패스_15" data-name="패스 15" class="cls-1" d="M748.59,251.16S903.24,92.38,827.15-48.21c-87.66,72-80.21,342.37-28.94,319.21"/><path id="패스_16" data-name="패스 16" class="cls-1" d="M868.5,242.89S1072.77,44.41,963.6-51.52c-102.54,71.12-59.54,474.69,20.68,363"/><path id="패스_17" data-name="패스 17" class="cls-1" d="M1021.08,261.49S1209.63,56.4,1117-26.3c-77.73,84.35-61.2,510.25,9.1,352.3"/><path id="패스_18" data-name="패스 18" class="cls-1" d="M1142.6,239S1323.76,36.35,1260.91-26.5c-86.84,36.38-94.28,292.75-94.28,292.75"/><path id="패스_19" data-name="패스 19" class="cls-1" d="M1284.89,249.3S1462.69,35.93,1392.4-77.36c-70.3,111.64-125.7,400.26-30.6,382.89"/><path id="패스_20" data-name="패스 20" class="cls-1" d="M1428,249.3s134-132.32,91.8-321.7c-107.51,186.07-74.43,483,4.13,370.48"/></g></svg>