<svg width="121" height="121" xmlns="http://www.w3.org/2000/svg" xmlns:xlink="http://www.w3.org/1999/xlink" overflow="hidden"><defs><clipPath id="clip0"><rect x="80" y="163" width="121" height="121"/></clipPath></defs><g clip-path="url(#clip0)" transform="translate(-80 -163)"><path d="M181.962 284 99.0379 284C88.5072 284 80 275.493 80 264.962L80 182.038C80 171.507 88.5072 163 99.0379 163L182.003 163C192.493 163 201 171.507 201 182.038L201 265.003C201 275.493 192.493 284 181.962 284Z" fill="#FFFFFF"/><path d="M179.773 205.536 149.007 188.563C146.653 187.283 143.721 188.15 142.441 190.462 142.069 191.165 141.863 191.99 141.822 192.775L141.822 256.166C141.822 258.85 143.969 260.998 146.653 260.998L177.461 260.998C180.145 260.998 182.292 258.809 182.292 256.166L182.292 209.789C182.292 208.014 181.343 206.403 179.773 205.536Z" fill="#FF9600"/><path d="M182.169 244.892C181.012 243.488 171.927 232.461 171.142 229.364 171.142 229.282 171.142 229.24 171.142 229.158 171.349 227.919 172.877 215.612 158.96 215.819 158.671 215.819 158.423 216.067 158.423 216.356 158.423 216.48 158.464 216.603 158.547 216.727L163.75 222.633C164.287 223.252 164.204 224.161 163.626 224.698 163.626 224.698 163.626 224.698 163.626 224.698L158.877 228.827C158.216 229.405 157.225 229.323 156.647 228.662L151.939 223.294C151.526 222.839 150.824 222.798 150.37 223.17 150.205 223.294 150.081 223.5 150.04 223.706 149.007 227.258 148.388 235.104 161.685 237.706 161.727 237.706 161.768 237.747 161.809 237.747 162.511 238.119 168.871 241.629 181.343 256.827 181.549 257.074 181.88 257.074 182.086 256.909 182.21 256.827 182.292 256.661 182.292 256.496L182.292 245.222C182.251 245.098 182.251 244.974 182.169 244.892Z" fill="#FFFFFF"/><path d="M116.754 198.102 116.754 196.533C116.754 194.22 115.102 192.321 113.12 192.321L104.696 192.321C102.713 192.321 101.061 194.22 101.061 196.533L101.061 203.388C101.061 206.568 104.035 208.633 106.43 207.105L114.855 201.819C116.094 200.993 116.796 199.589 116.754 198.102Z" fill="#FF9600"/><path d="M129.845 189.1 98.9966 206.197C97.5099 207.023 96.6014 208.592 96.6014 210.285L96.6014 256.207C96.6014 258.768 98.6662 260.874 101.268 260.874 101.268 260.874 101.268 260.874 101.268 260.874L103.746 260.874C106.306 260.874 108.412 258.768 108.412 256.207L108.412 256.207 108.412 216.48C108.412 214.745 109.362 213.134 110.931 212.35L134.264 200.167C135.792 199.383 136.783 197.772 136.783 196.038L136.783 193.188C136.783 190.628 134.677 188.521 132.117 188.521 131.291 188.521 130.506 188.728 129.845 189.1Z" fill="#FF9600"/><path d="M116.341 260.874 113.079 260.874C110.518 260.874 108.412 258.768 108.412 256.207 108.412 256.207 108.412 256.207 108.412 256.207L108.412 216.48C108.412 214.745 109.362 213.134 110.931 212.35L126.789 204.09C129.061 202.893 131.91 203.801 133.067 206.073 133.397 206.733 133.603 207.477 133.603 208.22L133.603 212.226C133.603 213.919 132.654 215.488 131.167 216.314L123.444 220.485C121.958 221.311 121.008 222.881 121.008 224.574L121.008 256.207C121.008 258.768 118.902 260.874 116.341 260.874L116.341 260.874Z" fill="#B88B4A"/></g></svg>