<?xml version="1.0" encoding="utf-8"?>
<!-- Generator: Adobe Illustrator 25.0.0, SVG Export Plug-In . SVG Version: 6.00 Build 0)  -->
<svg version="1.1" id="레이어_1" xmlns="http://www.w3.org/2000/svg" xmlns:xlink="http://www.w3.org/1999/xlink" x="0px"
	 y="0px" viewBox="0 0 322 108" style="enable-background:new 0 0 322 108;" xml:space="preserve">
<style type="text/css">
	.st0{fill:#FFFFFF;}
</style>
<g transform="translate(0.000000,108.000000) scale(0.100000,-0.100000)">
	<path class="st0" d="M158,1033l32-4V540V51l-33-4c-17-2,59-5,171-5l202-2l-1,138c-1,75-4,124-6,107c-11-86-27-138-51-166
		c-31-37-78-59-127-59h-35v246v247l33-7c48-9,77-48,78-104c1-26,1-50,0-55c0-4,3-7,9-7s10,67,10,180c0,120-4,180-11,180
		c-5,0-8-3-6-7c3-5,1-35-4-67c-9-67-28-92-77-102l-32-6v232v233l51-5c91-9,134-64,149-186c6-59,8-51,9,71l1,137l-197-2
		C214,1038,140,1035,158,1033z"/>
	<path class="st0" d="M1013,1033l37-4V540V51l-37-4c-21-2,55-4,170-5l207-2l-1,138l-1,137l-13-77c-21-122-63-171-159-184l-46-7v491
		v491l38,4c20,2-24,4-98,4S992,1035,1013,1033z"/>
	<path class="st0" d="M1863,1033l37-4V540V51l-37-4c-21-2,55-4,170-5l207-2l-1,138l-1,137l-14-78c-20-122-62-170-158-183l-46-7v491
		v491l38,4c20,2-24,4-98,4S1842,1035,1863,1033z"/>
	<path class="st0" d="M2723,1033l37-4V540V51l-37-4c-21-2,53-4,165-5l202-2l-1,133c-2,109-3,121-9,66c-11-111-59-168-149-177l-51-5
		v247c0,267-2,260,55,234c35-16,55-57,55-112c0-25,5-48,10-51c7-4,10,58,10,179c0,102-4,186-8,186c-5,0-9-21-10-47
		c-3-65-19-101-53-118c-60-32-59-37-59,215v230h38c51,0,102-28,127-70c11-19,25-69,31-110l12-75l1,138l1,137l-202-2
		C2776,1037,2702,1035,2723,1033z"/>
</g>
</svg>
