<svg id="레이어_1" data-name="레이어 1" xmlns="http://www.w3.org/2000/svg" viewBox="0 0 288 297.19"><defs><style>.cls-1{fill:#f36327;}.cls-2{fill:#f35d1e;}</style></defs><rect class="cls-1" x="259.53" y="118.57" width="24.55" height="38.12"/><path class="cls-2" d="M276.22,213.56,257.92,203a123,123,0,0,0-17-125.5L253,62.74,223.5,38.59,212.73,51.75a122.07,122.07,0,0,0-49.94-19.09V16.85H124.67V33.07A122.23,122.23,0,0,0,76.45,52.35L65.1,38.48,35.6,62.63,48.48,78.36a122.58,122.58,0,0,0-21,40.11h-23v38.12H22.21a122.87,122.87,0,0,0,9.64,45.62L12.38,213.45l19.06,33L52,234.57a124.36,124.36,0,0,0,17.42,16.55l16.41-21,4,33.11h18.66v23.33h72.82V263.22H200l4-33.13,16.48,21.18a124.34,124.34,0,0,0,17.05-16.05l19.66,11.36ZM145.85,229.89H119.67v-46L137,173.22l14,22,19.67-14v48.67Zm58.11,0H193.33V104.55H170.67v47.34l-15,10-14-20-22,15.66v-53H97V229.89h-11l0,0a95.88,95.88,0,1,1,117.88,0Z"/></svg>